# xmcd
#
# Track frame offsets:
#	150
#	11805
#	24883
#	38315
#	52143
#	65111
#	77037
#	89244
#	101290
#	112301
#	125273
#	140433
#	153994
#	165521
#	178499
#	191645
#	205206
#	219059
#
# Disc length: 3076
#
# Revision: 1
# Processed by: cddbd v1.5.1PL0 Copyright (c) Steve Scherf et al.
# Submitted via: dBpowerAMP V4.0
# Normalized: r0:TDELIM( - )
#
DISCID=fa0c0212
DTITLE=Various Artist - Strange Fruit - Ladies Sing The Blues
DYEAR=2000
DGENRE=Blues
TTITLE0=Nina Simone - Work Song
TTITLE1=Dinah Washington - Embraceable You
TTITLE2=Ella Fitzgerald - (If You Can't Sing It) You'll Have To Swing It
TTITLE3=Nina Simone - Gin House Blues
TTITLE4=Sarah Vaughan - Body And Soul
TTITLE5=Lena Horne - Night And Day
TTITLE6=Dinah Washington - You Can Depend On Me
TTITLE7=Ella Fitzgerald - Stone Cold Dead In De Market
TTITLE8=Sarah Vaughan - I'm Gonna Sit Right Down And Write Myself A Letter
TTITLE9=Nina Simone - The Other Woman
TTITLE10=Sarah Vaughan - Lover Man
TTITLE11=Nina Simone - The Other Woman
TTITLE12=Ella Fitzgerald - Baby Won't You Please Come Home
TTITLE13=Sarah Vaughan - Don't Worry About Me
TTITLE14=Billie Holiday - Strange Fruit
TTITLE15=Lena Horne - Beale Street Blues
TTITLE16=Billy Holiday - Georgia On My Mind
TTITLE17=Lena Horne - Old Devil Moon
EXTD=
EXTT0=
EXTT1=
EXTT2=
EXTT3=
EXTT4=
EXTT5=
EXTT6=
EXTT7=
EXTT8=
EXTT9=
EXTT10=
EXTT11=
EXTT12=
EXTT13=
EXTT14=
EXTT15=
EXTT16=
EXTT17=
PLAYORDER=
